<svg version="1.1" preserveAspectRatio="none" xmlns="http://www.w3.org/2000/svg" width="500" height="500" viewBox="0 0 500 500"><rect width="100%" height="100%" fill="#192537" fill-opacity="1"/><svg viewBox="254.4462 366.327 367.3102 159.4664" width="333" height="144.57075028136978" x="83.5px" y="177.7146px" xmlns="http://www.w3.org/2000/svg" xmlns:xlink="http://www.w3.org/1999/xlink" preserveAspectRatio="none"><defs></defs><style>.companyName {fill:#E9E9E9;fill-opacity:1;}.icon1 {fill:#B09E80;fill-opacity:0.98;}.icon2 {fill:#E9E9E9;fill-opacity:1;}.icon3 {fill:#716551;fill-opacity:1;}.icon3-str {stroke:#716551;stroke-opacity:1;}.shapeStroke-str {stroke:#E9E9E9;stroke-opacity:1;}.text {fill:#B09E80;fill-opacity:1;}</style><g opacity="1" transform="rotate(0 379.2097 506.1934)">
<svg width="117.7832" height="19.6" x="379.2097" y="506.1934" version="1.1" preserveAspectRatio="none" viewBox="1.28 -30.12 180.99999999999997 30.12">
  <g transform="matrix(1 0 0 1 0 0)" class="text"><path id="id-6izo4zJp5" d="M22.32 0L19.32-7.60L8.20-7.60L5.12 0L1.28 0L13.92-30.12L14.16-30.12L26.80 0L22.32 0ZM9.60-10.96L18-10.96L13.88-21.52L9.60-10.96Z M63.12-28.92L63.12 0L59.24 0L59.24-12.68L44.08-12.68L44.08 0L40.20 0L40.20-28.92L44.08-28.92L44.08-16.40L59.24-16.40L59.24-28.92L63.12-28.92Z M108.16-29.84L108.20-29.84L108.20 0L104.36 0L104.36-18.72L93.72-3.64L93.64-3.64L83.20-18.20L83.20 0L79.44 0L79.44-29.84L79.48-29.84L93.72-9.68L108.16-29.84Z M124.52-28.92L143.32-28.92L143.32-25.20L128.40-25.20L128.40-16.40L141.72-16.40L141.72-12.68L128.40-12.68L128.40-3.76L143.88-3.76L143.88 0L124.52 0L124.52-28.92Z M158.64 0L158.64-28.92L166.56-28.92Q171.96-28.92 175.50-26.78Q179.04-24.64 180.66-21.26Q182.28-17.88 182.28-14.12L182.28-14.12Q182.28-9.92 180.32-6.70Q178.36-3.48 175.08-1.74Q171.80 0 167.96 0L167.96 0L158.64 0ZM162.52-3.76L167.20-3.76Q170.40-3.76 172.92-5.02Q175.44-6.28 176.86-8.68Q178.28-11.08 178.28-14.40L178.28-14.40Q178.28-17.80 176.80-20.24Q175.32-22.68 172.86-23.94Q170.40-25.20 167.56-25.20L167.56-25.20L162.52-25.20L162.52-3.76Z"/></g>
</svg>
</g><g opacity="1" transform="rotate(0 423.1013 366.327)">
<svg width="30" height="23.7328" x="423.1013" y="366.327" version="1.1" preserveAspectRatio="none" viewBox="25.9679012298584 30.976905822753903 48.06419372558594 38.023284912109375">
  <g transform="matrix(1 0 0 1 0 0)" class="icon1"><title>Artboard 265</title><path d="M32,69H68a2,2,0,0,0,2-1.67l4-24a2,2,0,0,0-3-2.07L58.93,48.17l-7.1-16a2,2,0,0,0-3.66,0l-7.1,16L29,41.26a2,2,0,0,0-3,2.07l4,24A2,2,0,0,0,32,69Zm9-16.26a2,2,0,0,0,1.61.16,2,2,0,0,0,1.21-1.09L50,37.92l6.17,13.89a2,2,0,0,0,1.21,1.09A2,2,0,0,0,59,52.74l10.34-5.91L66.31,65H33.69l-3-18.17Z"></path></g>
</svg>
</g><g opacity="1" transform="rotate(0 254.4462 382.1934)">
<svg width="153.6551" height="2" x="254.4462" y="382.1934" version="1.1" preserveAspectRatio="none" viewBox="0 0 153.6551 2">
  <rect x="0" y="0" width="153.6551" height="2" class="icon1 shapeStroke-str" style="stroke-width:0;" rx="0px" ry="0px" />
</svg>
</g><g opacity="1" transform="rotate(0 468.1013 382.1934)">
<svg width="153.6551" height="2" x="468.1013" y="382.1934" version="1.1" preserveAspectRatio="none" viewBox="0 0 153.6551 2">
  <rect x="0" y="0" width="153.6551" height="2" class="icon1 shapeStroke-str" style="stroke-width:0;" rx="0px" ry="0px" />
</svg>
</g><g opacity="1" transform="rotate(0 254.4462 408.1934)">
<svg width="367.3102" height="70" x="254.4462" y="408.1934" version="1.1" preserveAspectRatio="none" viewBox="2.32 -28.56 152.8 29.12">
  <g transform="matrix(1 0 0 1 0 0)" class="companyName"><path id="id-D6z1nYkh6" d="M2.44-1.64L2.44-1.64Q2.32-2.20 2.32-3.80Q2.32-5.40 2.92-7.20L2.92-7.20L3.28-7.20Q3.24-6.76 3.24-6.32L3.24-6.32Q3.24-3.88 4.72-2.26Q6.20-0.64 8.64-0.64L8.64-0.64Q11.16-0.64 12.78-2.16Q14.40-3.68 14.40-5.98Q14.40-8.28 12.84-9.72L12.84-9.72L5.16-16.84Q3-18.84 3-21.68Q3-24.52 4.90-26.54Q6.80-28.56 10.04-28.56L10.04-28.56Q11.56-28.56 13.48-28.16L13.48-28.16L15.04-28.16L15.04-23.24L14.68-23.24Q14.68-25.12 13.38-26.24Q12.08-27.36 10.04-27.36Q8-27.36 6.62-26Q5.24-24.64 5.24-22.60Q5.24-20.56 6.84-19.08L6.84-19.08L14.72-11.80Q16.72-9.96 16.72-6.76Q16.72-3.56 14.68-1.50Q12.64 0.56 9.24 0.56L9.24 0.56Q7.48 0.56 5.50 0.02Q3.52-0.52 2.44-1.64Z M40.52-0.40L41-0.40Q41.92-0.40 42.60-1.02Q43.28-1.64 43.32-2.52L43.32-2.52L43.32-11.24L28.56-11.24L28.56-2.52Q28.60-1.64 29.28-1.02Q29.96-0.40 30.88-0.40L30.88-0.40L31.36-0.40L31.36 0L23.20 0L23.20-0.40L23.68-0.40Q24.64-0.40 25.30-1.04Q25.96-1.68 26-2.56L26-2.56L26-21.44Q25.96-22.32 25.28-22.96Q24.60-23.60 23.68-23.60L23.68-23.60L23.20-23.60L23.20-24L31.36-24L31.36-23.60L30.88-23.60Q29.96-23.60 29.28-22.98Q28.60-22.36 28.56-21.48L28.56-21.48L28.56-12.44L43.32-12.44L43.32-21.44Q43.32-22.32 42.80-22.80L42.80-22.80Q41.96-23.60 41-23.60L41-23.60L40.52-23.60L40.52-24L48.68-24L48.68-23.60L48.20-23.60Q47.28-23.60 46.60-23Q45.92-22.40 45.88-21.52L45.88-21.52L45.88-2.52Q45.92-1.64 46.40-1.20L46.40-1.20Q47.28-0.40 48.20-0.40L48.20-0.40L48.68-0.40L48.68 0L40.52 0L40.52-0.40Z M55.04-0.40L55.60-0.40Q56.68-0.40 57.48-1.04Q58.28-1.68 58.28-2.56L58.28-2.56L58.28-21.44Q58.28-22.32 57.48-22.96Q56.68-23.60 55.56-23.60L55.56-23.60L55.04-23.60L55.04-24L64.08-24L64.08-23.60L63.56-23.60Q62.48-23.60 61.70-23Q60.92-22.40 60.84-21.52L60.84-21.52L60.84-2.52Q60.88-1.64 61.68-1.02Q62.48-0.40 63.56-0.40L63.56-0.40L64.08-0.40L64.12 0L55.04 0L55.04-0.40Z M77.44-10.96L77.44-11.36Q78.36-11.12 79.12-11.12Q79.88-11.12 80.36-11.16Q80.84-11.20 81.72-11.42Q82.60-11.64 83.32-12.12L83.32-12.12Q85-13.16 85.80-15.40L85.80-15.40Q86.08-16.20 86.08-17.56L86.08-17.56Q86.08-20 84.40-21.40Q82.72-22.80 79.76-22.80L79.76-22.80L75.88-22.80L75.88-2.56Q75.92-1.28 77.04-0.68L77.04-0.68Q77.56-0.40 78.20-0.40L78.20-0.40L78.76-0.40L78.76 0L70.48 0L70.48-0.40L71.04-0.40Q72-0.40 72.66-1.02Q73.32-1.64 73.36-2.52L73.36-2.52L73.36-21.48Q73.32-22.40 72.66-23Q72-23.60 71.04-23.60L71.04-23.60L70.48-23.60L70.48-24L79.84-24Q84.04-24 86.50-22.16Q88.96-20.32 88.96-17.20L88.96-17.20Q88.96-14.96 87.92-13.28L87.92-13.28Q85.88-10 81.60-10L81.60-10Q79.48-10 77.44-10.96L77.44-10.96Z M101.32-22.98Q104.40-24.56 108.10-24.56Q111.80-24.56 114.88-22.98Q117.96-21.40 119.78-18.52Q121.60-15.64 121.60-12Q121.60-8.36 119.78-5.48Q117.96-2.60 114.88-1.02Q111.80 0.56 108.56 0.56Q105.32 0.56 102.84-0.36Q100.36-1.28 98.54-2.92Q96.72-4.56 95.66-6.92Q94.60-9.28 94.60-12.46Q94.60-15.64 96.42-18.52Q98.24-21.40 101.32-22.98ZM100.58-3.82Q103.60-0.64 108.08-0.64Q112.56-0.64 115.60-3.82Q118.64-7 118.64-12Q118.64-17 115.60-20.18Q112.56-23.36 108.08-23.36Q103.60-23.36 100.58-20.18Q97.56-17 97.56-12Q97.56-7 100.58-3.82Z M155.12-23.60L154.44-23.60Q153.56-23.60 152.92-23.02Q152.28-22.44 152.24-21.60L152.24-21.60L152.24-4.56Q152.24-2.24 152.52-0.16L152.52-0.16L152.60 0.56L152.24 0.56L131.44-19.16L131.44-2.48Q131.44-1.60 132.08-1Q132.72-0.40 133.64-0.40L133.64-0.40L134.32-0.40L134.32 0L126.76 0L126.76-0.40L127.44-0.40Q128.36-0.40 129-1Q129.64-1.60 129.64-2.48L129.64-2.48L129.64-19.60Q129.64-22.04 129.36-23.96L129.36-23.96L129.28-24.60L129.72-24.56L150.48-5L150.48-21.60Q150.40-22.44 149.76-23.02Q149.12-23.60 148.24-23.60L148.24-23.60L147.56-23.60L147.56-24L155.12-24L155.12-23.60Z"/></g>
</svg>
</g></svg></svg>